<?xml version="1.0" encoding="iso-8859-1"?>
<!-- Generator: Adobe Illustrator 18.1.1, SVG Export Plug-In . SVG Version: 6.00 Build 0)  -->
<svg version="1.1" id="Capa_1" xmlns="http://www.w3.org/2000/svg" xmlns:xlink="http://www.w3.org/1999/xlink" x="0px" y="0px"
	 viewBox="0 0 76 76" style="enable-background:new 0 0 76 76;" xml:space="preserve">
<g>
	<g>
		<path style="fill:#010002;" d="M40.248,14.439c-1.096-0.139-2.096,0.641-2.232,1.736c-0.136,1.095,0.641,2.096,1.737,2.232
			c4.827,0.602,8.974,3.967,10.563,8.572c0.286,0.828,1.061,1.35,1.891,1.35c0.217,0,0.437-0.037,0.652-0.111
			c1.045-0.359,1.599-1.498,1.238-2.543C52.014,19.639,46.577,15.228,40.248,14.439z"/>
		<path style="fill:#010002;" d="M61.75,23.24C59.567,13.562,51.05,6.676,41,6.676c-7.834,0-15.03,4.343-18.73,11.183
			c-0.19-0.011-0.382-0.017-0.572-0.017c-5.59,0-10.137,4.547-10.137,10.137c0,1.063,0.164,2.103,0.484,3.095
			C5.184,32.449,0,38.521,0,45.781c0,8.271,6.729,15,15,15c0.279,0,0.563-0.01,0.862-0.029c3.641,3.553,8.556,5.572,13.638,5.572
			c2.611,0,5.203-0.528,7.599-1.541c1.816,2.781,4.956,4.541,8.354,4.541c5.093,0,9.308-3.837,9.904-8.771
			c0.55,0.05,1.099,0.074,1.643,0.074c10.477,0,19-8.523,19-19C76,32.901,70.086,25.379,61.75,23.24z M57,56.627
			c-1.06,0-2.146-0.121-3.229-0.359c-0.639-0.14-1.308,0.039-1.788,0.485c-0.48,0.444-0.713,1.097-0.622,1.745
			c0.047,0.339,0.069,0.608,0.069,0.85c0,3.296-2.681,5.977-5.977,5.977c-2.478,0-4.726-1.564-5.594-3.893
			c-0.204-0.546-0.635-0.976-1.182-1.177c-0.224-0.083-0.458-0.124-0.692-0.124c-0.336,0-0.67,0.084-0.97,0.251
			c-2.292,1.271-4.891,1.942-7.516,1.942c-4.37,0-8.42-1.78-11.405-5.013c-0.438-0.474-1.078-0.71-1.717-0.628
			c-0.537,0.066-0.975,0.098-1.378,0.098c-6.065,0-11-4.935-11-11s4.935-11,10.942-11.001c0.021,0.002,0.102,0.006,0.124,0.007
			c0.768,0.031,1.485-0.381,1.845-1.06c0.361-0.678,0.301-1.503-0.153-2.122c-0.783-1.066-1.197-2.32-1.197-3.627
			c0-3.384,2.753-6.137,6.137-6.137c0.431,0,0.869,0.048,1.302,0.142c0.912,0.2,1.857-0.27,2.247-1.129
			C28.047,14.67,34.23,10.675,41,10.675c8.537,0,15.712,6.12,17.062,14.553c0.134,0.838,0.783,1.501,1.619,1.651
			C66.82,28.169,72,34.37,72,41.626C72,49.898,65.271,56.627,57,56.627z"/>
	</g>
</g>
<g>
</g>
<g>
</g>
<g>
</g>
<g>
</g>
<g>
</g>
<g>
</g>
<g>
</g>
<g>
</g>
<g>
</g>
<g>
</g>
<g>
</g>
<g>
</g>
<g>
</g>
<g>
</g>
<g>
</g>
</svg>
