<?xml version="1.0" encoding="iso-8859-1"?>
<!-- Generator: Adobe Illustrator 18.1.1, SVG Export Plug-In . SVG Version: 6.00 Build 0)  -->
<svg version="1.1" id="Capa_1" xmlns="http://www.w3.org/2000/svg" xmlns:xlink="http://www.w3.org/1999/xlink" x="0px" y="0px"
	 viewBox="0 0 465.416 465.416" style="enable-background:new 0 0 465.416 465.416;" xml:space="preserve">
<g>
	<g>
		<path style="fill:#010002;" d="M359.504,403.814c-16.188,0-32.287-3.771-46.78-10.931c-6.164,3.61-13.109,5.507-20.299,5.507
			c-14.905,0-28.546-8.419-35.485-21.218c-17.376,11.594-37.46,17.692-58.541,17.692c-38.319,0-73.255-20.484-92.093-53.708
			c-0.131,0.006-0.263,0.006-0.394,0.006C47.508,341.162,0,293.648,0,235.25c0-58.404,47.508-105.912,105.912-105.912
			c9.923,0,19.822,1.438,29.524,4.284c14.416-42.705,54.782-72.02,100.255-72.02c33.295,0,64.711,15.8,84.694,42.43
			c0.609-0.03,1.211-0.048,1.826-0.048c58.398,0,105.912,47.508,105.912,105.912c0,2.369-0.084,4.744-0.257,7.202
			c23.909,20.21,37.549,49.477,37.549,80.803C465.416,356.3,417.902,403.814,359.504,403.814z M311.936,378.98l3.276,1.76
			c13.557,7.292,28.88,11.14,44.292,11.14c51.822,0,93.978-42.156,93.978-93.978c0-28.736-12.954-55.534-35.539-73.518l-2.536-2.017
			l0.316-3.228c0.316-3.234,0.465-6.259,0.465-9.249c0-51.822-42.156-93.978-93.978-93.978c-0.901,0-1.79,0.066-2.673,0.125
			l-5.048,0.263l-1.886-2.691C294.978,88.513,266.23,73.53,235.691,73.53c-42.198,0-79.437,28.462-90.565,69.204l-1.695,6.212
			l-6.062-2.154c-10.293-3.664-20.878-5.519-31.457-5.519c-51.822,0-93.978,42.156-93.978,93.978s42.156,93.978,93.978,93.978
			c0.632,0,1.259-0.048,1.886-0.089l5.501-0.239l1.742,3.347c16.272,31.26,48.212,50.683,83.357,50.683
			c20.985,0,40.861-6.814,57.479-19.691l6.868-5.328l2.5,8.33c3.574,11.898,14.75,20.216,27.179,20.216
			c5.931,0,11.635-1.838,16.492-5.316L311.936,378.98z"/>
	</g>
</g>
<g>
</g>
<g>
</g>
<g>
</g>
<g>
</g>
<g>
</g>
<g>
</g>
<g>
</g>
<g>
</g>
<g>
</g>
<g>
</g>
<g>
</g>
<g>
</g>
<g>
</g>
<g>
</g>
<g>
</g>
</svg>
