<?xml version="1.0" encoding="iso-8859-1"?>
<!-- Generator: Adobe Illustrator 19.0.0, SVG Export Plug-In . SVG Version: 6.00 Build 0)  -->
<svg version="1.1" id="Capa_1" xmlns="http://www.w3.org/2000/svg" xmlns:xlink="http://www.w3.org/1999/xlink" x="0px" y="0px"
	 viewBox="0 0 507.901 507.901" style="enable-background:new 0 0 507.901 507.901;" xml:space="preserve">
<g>
	<g>
		<path d="M473.2,278.1c1.3-8,2-16.1,2-24.1c0-81.3-66.2-147.5-147.5-147.5c-53.7,0-102.1,28.5-128.3,75
			c-13.7-6.2-28.7-9.4-43.8-9.4c-56.5,0-102.9,44.2-106.3,100.4C20.8,279.8,0,305.9,0,335.9c0,36.1,29.4,65.5,65.5,65.5h376.9
			c36.1,0,65.5-29.4,65.5-65.5C508,311.4,494.6,289.4,473.2,278.1z M442.5,385.1h-377c-27.1,0-49.2-22.1-49.2-49.2
			c0-46.8,49.2-50.2,49.2-50.2v-7.1c0-49.7,40.4-90.1,90.1-90.1c29.4,0,50.8,15.2,50.8,15.2s33.9-80.8,121.2-80.8
			c72.3,0,131.1,58.8,131.1,131.1c0,21.6-4.2,33.8-4.2,33.8s37,9.6,37,48.1C491.6,363,469.6,385.1,442.5,385.1z"/>
	</g>
</g>
<g>
	<g>
		<path d="M327.7,147.5v16.4c49.7,0,90.1,40.4,90.1,90.1h16.4C434.3,195.3,386.5,147.5,327.7,147.5z"/>
	</g>
</g>
<g>
</g>
<g>
</g>
<g>
</g>
<g>
</g>
<g>
</g>
<g>
</g>
<g>
</g>
<g>
</g>
<g>
</g>
<g>
</g>
<g>
</g>
<g>
</g>
<g>
</g>
<g>
</g>
<g>
</g>
</svg>
