<?xml version="1.0" encoding="iso-8859-1"?>
<!-- Generator: Adobe Illustrator 19.0.0, SVG Export Plug-In . SVG Version: 6.00 Build 0)  -->
<svg version="1.1" id="Capa_1" xmlns="http://www.w3.org/2000/svg" xmlns:xlink="http://www.w3.org/1999/xlink" x="0px" y="0px"
	 viewBox="0 0 508 508" style="enable-background:new 0 0 508 508;" xml:space="preserve">
<g>
	<g>
		<path d="M93.2,271.05h16.4c0-32.9,26.7-59.6,59.6-59.6v-16.4C127.3,195.05,93.2,229.05,93.2,271.05z"/>
	</g>
</g>
<g>
	<g>
		<path d="M440.5,211.95h-0.7c-4.1-42.8-40.3-76.3-84.1-76.3c-9.1,0-18,1.5-26.6,4.3c-20.5-19.2-46.9-29.8-75.1-29.8
			c-37.5,0-72.6,19.5-92.7,51.2c-54.4,3.9-97.9,47.4-101.7,101.8c-33.5,4.1-59.6,32.6-59.6,67.2c0,37.2,30.3,67.5,67.5,67.5h288.2
			c31.5,0,57.9-21.7,65.4-50.9h19.4c37.2,0,67.5-30.3,67.5-67.5C508,242.25,477.7,211.95,440.5,211.95z M355.7,381.45H67.5
			c-28.2,0-51.1-22.9-51.1-51.1s22.9-51.1,51.1-51.1h8.2v-8.2c0-51.6,42-93.5,93.5-93.5c44.8,0,71,32.5,71,32.5s13.7-7.1,30.7-7.1
			c37.5,0,68.1,30.5,68.1,68.1v8.2h16.7c28.2,0,51.1,22.9,51.1,51.1C406.9,358.55,383.9,381.45,355.7,381.45z M440.5,330.65h-17.2
			c0-0.1,0-0.2,0-0.3c0-37.2-30.3-67.5-67.5-67.5H355c-4.1-42.8-40.3-76.3-84.1-76.3c-9.1,0-18,1.5-26.6,4.3
			c-17.5-16.5-39.5-26.5-63.1-29c17.6-21.9,44.3-35.2,72.7-35.2c47.6,0,71,32.5,71,32.5s12.1-7.1,30.7-7.1
			c37.5,0,68.1,30.5,68.1,68.1v8.2h16.7c28.2,0,51.1,22.9,51.1,51.1C491.6,307.65,468.7,330.65,440.5,330.65z"/>
	</g>
</g>
<g>
</g>
<g>
</g>
<g>
</g>
<g>
</g>
<g>
</g>
<g>
</g>
<g>
</g>
<g>
</g>
<g>
</g>
<g>
</g>
<g>
</g>
<g>
</g>
<g>
</g>
<g>
</g>
<g>
</g>
</svg>
