<?xml version="1.0" encoding="UTF-8" ?>
<!DOCTYPE svg PUBLIC "-//W3C//DTD SVG 1.1//EN" "http://www.w3.org/Graphics/SVG/1.1/DTD/svg11.dtd">
<svg width="729pt" height="690pt" viewBox="0 0 729 690" version="1.1" xmlns="http://www.w3.org/2000/svg">
<path fill="#f05a28" opacity="1.00" d=" M 387.58 20.59 C 389.49 16.76 389.62 10.79 393.78 8.83 C 396.55 18.96 403.57 24.26 414.05 23.14 C 404.49 27.96 402.24 37.67 405.90 47.15 C 397.94 40.49 389.62 40.08 381.46 46.40 C 381.99 41.72 382.54 37.05 383.03 32.37 C 379.48 29.53 376.06 26.54 372.94 23.23 C 377.84 22.50 382.71 21.54 387.58 20.59 Z" />
<path fill="#f05a28" opacity="1.00" d=" M 543.43 31.54 C 545.17 27.43 547.03 23.33 549.67 19.71 C 551.50 23.78 553.38 27.83 555.35 31.84 C 560.02 32.32 564.70 32.88 569.37 33.49 C 566.07 36.60 562.84 39.77 559.27 42.56 C 559.72 46.79 560.19 51.01 560.65 55.24 C 556.79 53.98 553.30 51.84 549.83 49.80 C 546.25 51.14 535.58 59.72 538.36 49.38 C 540.75 41.92 534.33 37.64 529.57 33.38 C 534.17 32.63 538.78 32.11 543.43 31.54 Z" />
<path fill="#000000" opacity="1.00" d=" M 479.61 66.60 C 505.98 60.61 533.15 65.26 559.89 64.19 C 566.95 64.55 579.80 63.47 581.68 72.83 C 582.58 108.60 581.57 144.41 582.14 180.20 C 580.95 180.45 579.77 180.71 578.60 180.99 C 579.63 182.06 580.67 183.13 581.76 184.15 C 580.19 190.05 583.50 194.51 588.19 197.30 C 587.88 199.58 587.53 201.85 587.24 204.13 C 589.43 203.45 591.62 202.72 593.72 201.79 C 607.75 213.36 619.52 227.28 630.64 241.53 C 645.15 245.44 659.83 251.32 670.60 262.41 C 715.02 310.01 716.09 391.89 672.10 440.06 C 664.82 444.67 662.17 452.60 658.94 459.99 C 679.43 467.00 699.51 475.14 719.97 482.24 C 691.71 486.89 663.37 490.95 635.09 495.49 C 598.83 531.11 550.68 552.94 500.98 561.96 C 443.14 573.27 383.04 573.52 325.08 562.92 C 314.88 561.89 303.99 555.05 293.98 559.94 C 272.53 569.55 250.88 578.67 229.35 588.08 C 225.77 579.43 221.77 570.94 218.80 562.05 C 232.54 555.93 246.30 549.81 260.15 543.89 C 248.94 538.60 238.17 532.15 226.89 527.25 C 203.42 535.14 181.41 547.35 158.17 556.14 C 154.30 547.55 150.63 538.84 147.16 530.11 C 164.92 522.77 182.45 514.88 200.23 507.59 C 174.82 482.87 154.69 450.84 149.75 414.97 C 137.11 420.93 125.14 428.26 112.79 434.82 C 122.35 420.42 132.80 406.61 141.90 391.90 C 109.28 404.64 77.63 419.79 45.24 433.11 C 36.89 408.31 27.75 383.79 19.01 359.13 C 57.13 353.74 95.44 349.40 133.42 343.32 C 97.02 334.66 61.10 324.15 24.88 314.82 C 28.30 306.19 33.11 298.20 36.63 289.61 C 43.18 287.81 49.84 286.32 56.15 283.78 C 54.03 276.57 42.99 269.64 49.77 261.84 C 55.18 252.88 58.46 242.75 64.00 233.92 C 98.03 257.74 130.97 283.16 164.13 308.21 C 174.38 292.86 174.86 271.94 190.07 259.89 C 178.57 233.75 181.26 201.25 200.27 179.29 C 210.58 165.03 211.64 191.28 218.42 196.45 C 224.15 188.85 228.33 180.14 235.42 173.56 C 241.96 179.08 242.21 188.92 248.00 195.24 C 302.71 121.65 392.20 84.26 479.61 66.60 M 515.06 84.82 C 515.58 119.94 518.85 154.97 518.98 190.08 C 532.84 187.67 546.86 186.18 560.86 184.88 C 561.19 151.93 560.95 118.98 560.96 86.03 C 559.24 85.99 555.82 85.91 554.11 85.88 C 552.33 91.65 551.57 97.66 550.52 103.59 C 547.14 98.03 547.91 90.99 545.79 84.94 C 541.36 85.09 536.92 85.28 532.52 85.45 C 531.25 92.79 529.46 100.02 527.77 107.27 C 525.63 100.04 523.90 92.69 522.79 85.23 C 520.21 85.08 517.63 84.95 515.06 84.82 M 408.15 108.23 C 405.33 115.76 403.99 123.80 400.76 131.19 C 397.07 125.89 395.88 119.18 391.93 114.13 C 344.32 134.69 298.68 163.10 267.05 205.06 C 301.31 193.98 336.28 184.22 372.16 180.18 C 372.51 180.02 373.21 179.72 373.55 179.56 C 383.48 178.97 393.26 177.01 403.21 176.67 C 405.35 177.82 407.74 178.32 410.09 178.85 C 410.06 178.16 409.99 176.78 409.95 176.09 C 417.23 176.04 424.51 175.99 431.79 175.88 C 434.03 170.61 436.21 165.31 438.25 159.96 C 441.03 165.24 442.89 170.92 444.39 176.68 C 450.75 177.32 457.15 178.16 463.57 177.80 C 466.36 170.71 468.90 163.50 472.23 156.64 C 476.05 164.63 478.83 173.13 481.37 181.61 C 486.91 183.11 492.47 184.62 498.05 186.01 C 496.35 152.65 496.49 119.16 493.82 85.86 C 464.53 89.65 435.83 98.07 408.15 108.23 M 254.77 231.74 C 244.80 234.72 261.61 242.63 263.93 246.26 C 311.97 289.31 374.90 335.84 373.33 407.26 C 363.35 341.46 302.48 302.26 254.92 263.07 C 235.04 246.06 212.26 229.23 203.08 203.74 C 198.44 215.21 199.78 228.06 201.94 239.94 C 215.01 281.79 248.80 312.48 282.35 338.68 C 247.50 329.59 216.66 307.02 195.88 277.74 C 184.77 287.80 189.13 304.78 198.39 314.61 C 227.07 344.67 266.95 359.43 304.04 376.02 C 269.73 374.50 235.40 364.75 206.73 345.49 C 204.65 367.61 216.23 389.63 235.57 400.44 C 260.03 413.23 288.12 416.84 315.37 417.68 C 281.94 419.49 243.50 423.22 214.77 402.24 C 191.56 385.34 187.76 353.61 190.93 327.16 C 187.79 325.38 185.13 320.00 182.24 319.40 C 167.02 352.96 162.77 392.43 174.20 427.78 C 195.36 500.95 274.77 535.02 344.22 544.76 C 428.21 555.05 521.79 551.08 594.33 502.27 C 573.74 503.54 553.60 510.05 532.93 510.27 C 539.65 490.24 547.49 470.57 554.77 450.72 C 546.64 457.09 537.50 461.78 528.22 466.21 C 478.44 484.23 426.36 448.11 411.04 400.94 C 390.48 346.66 407.82 277.33 458.96 246.32 C 493.88 226.73 539.83 236.07 565.67 266.13 C 572.83 269.55 579.23 255.23 585.79 252.10 C 587.65 251.18 589.47 250.18 591.26 249.11 C 596.04 247.95 600.22 245.05 604.99 243.76 C 593.30 229.59 579.84 216.39 564.50 206.29 C 538.34 205.74 511.00 218.87 486.16 204.83 C 408.69 186.54 328.30 205.98 254.77 231.74 M 233.02 203.67 C 232.00 206.92 231.35 210.25 230.87 213.62 C 231.65 214.43 232.43 215.25 233.20 216.07 C 233.89 215.93 235.27 215.63 235.96 215.48 C 235.73 211.38 234.91 207.35 233.02 203.67 M 453.56 277.90 L 453.42 278.59 C 422.89 309.00 416.16 358.85 433.18 397.85 C 445.39 430.45 481.61 458.70 517.28 445.82 C 540.78 440.68 557.55 419.24 568.21 398.71 C 573.94 404.96 577.55 412.79 583.02 419.27 C 594.69 435.70 619.39 447.73 638.16 437.12 C 675.80 420.20 687.25 370.15 681.30 332.69 C 676.39 303.32 660.07 270.20 628.34 263.44 C 599.73 259.47 580.27 284.85 568.23 307.07 C 556.68 287.68 541.80 267.85 519.42 260.63 C 496.40 252.48 470.48 261.28 453.56 277.90 M 576.38 452.08 C 572.94 463.12 568.45 473.79 564.69 484.73 C 588.16 480.98 612.08 478.78 635.17 473.28 C 615.39 466.73 596.26 458.25 576.38 452.08 Z" />
<path fill="#f05a28" opacity="1.00" d=" M 297.53 86.57 C 300.87 79.94 304.19 73.30 307.79 66.80 C 311.12 73.13 314.75 79.41 316.70 86.35 C 324.19 87.20 331.70 87.99 339.17 89.05 C 334.39 94.21 329.49 99.29 323.95 103.64 C 323.62 110.89 325.00 117.99 325.85 125.13 C 313.67 116.05 299.79 116.09 288.01 126.08 C 293.80 111.15 288.98 98.09 275.87 89.19 C 283.08 88.24 290.29 87.31 297.53 86.57 Z" />
<path fill="#d6c2ad" opacity="1.00" d=" M 515.06 84.82 C 517.63 84.95 520.21 85.08 522.79 85.23 C 523.90 92.69 525.63 100.04 527.77 107.27 C 529.46 100.02 531.25 92.79 532.52 85.45 C 536.92 85.28 541.36 85.09 545.79 84.94 C 547.91 90.99 547.14 98.03 550.52 103.59 C 551.57 97.66 552.33 91.65 554.11 85.88 C 555.82 85.91 559.24 85.99 560.96 86.03 C 560.95 118.98 561.19 151.93 560.86 184.88 C 546.86 186.18 532.84 187.67 518.98 190.08 C 518.85 154.97 515.58 119.94 515.06 84.82 Z" />
<path fill="#b29c88" opacity="1.00" d=" M 408.15 108.23 C 435.83 98.07 464.53 89.65 493.82 85.86 C 496.49 119.16 496.35 152.65 498.05 186.01 C 492.47 184.62 486.91 183.11 481.37 181.61 C 478.83 173.13 476.05 164.63 472.23 156.64 C 468.90 163.50 466.36 170.71 463.57 177.80 C 457.15 178.16 450.75 177.32 444.39 176.68 C 442.89 170.92 441.03 165.24 438.25 159.96 C 436.21 165.31 434.03 170.61 431.79 175.88 C 424.51 175.99 417.23 176.04 409.95 176.09 C 409.48 170.30 408.48 164.56 407.24 158.89 C 412.25 154.24 417.37 149.68 421.97 144.61 C 416.19 141.05 408.02 142.36 401.30 140.85 C 398.07 134.19 394.83 127.54 391.65 120.86 C 386.95 136.19 377.19 145.95 359.84 143.50 C 364.92 148.47 369.95 153.50 375.06 158.44 C 374.51 165.74 373.35 172.96 372.16 180.18 C 336.28 184.22 301.31 193.98 267.05 205.06 C 298.68 163.10 344.32 134.69 391.93 114.13 C 395.88 119.18 397.07 125.89 400.76 131.19 C 403.99 123.80 405.33 115.76 408.15 108.23 Z" />
<path fill="#f05a28" opacity="1.00" d=" M 699.21 104.86 C 703.11 110.11 705.01 116.44 708.13 122.11 C 714.18 123.45 720.53 123.50 726.43 125.61 C 713.99 131.69 711.69 144.09 715.70 156.37 C 705.44 148.06 693.41 147.88 683.14 156.12 C 683.99 149.90 684.66 143.66 685.08 137.39 C 680.51 133.19 676.09 128.85 671.82 124.34 C 678.24 123.90 684.67 123.23 690.98 121.92 C 693.75 116.25 696.70 110.66 699.21 104.86 Z" />
<path fill="#f05a28" opacity="1.00" d=" M 624.69 131.64 C 627.42 125.53 630.60 119.63 633.79 113.75 C 636.75 119.45 640.10 125.10 641.51 131.43 C 648.39 133.01 655.59 132.58 662.39 134.57 C 657.53 139.05 652.77 143.65 647.97 148.19 C 649.08 154.77 650.09 161.37 651.03 167.97 C 640.24 158.00 626.73 157.88 616.01 168.06 C 622.22 154.46 617.10 142.41 604.98 134.65 C 611.59 133.97 618.22 133.24 624.69 131.64 Z" />
<path fill="#f05a28" opacity="1.00" d=" M 359.84 143.50 C 377.19 145.95 386.95 136.19 391.65 120.86 C 394.83 127.54 398.07 134.19 401.30 140.85 C 408.02 142.36 416.19 141.05 421.97 144.61 C 417.37 149.68 412.25 154.24 407.24 158.89 C 408.48 164.56 409.48 170.30 409.95 176.09 C 409.99 176.78 410.06 178.16 410.09 178.85 C 407.74 178.32 405.35 177.82 403.21 176.67 C 393.74 165.85 383.15 174.24 373.55 179.56 C 373.21 179.72 372.51 180.02 372.16 180.18 C 373.35 172.96 374.51 165.74 375.06 158.44 C 369.95 153.50 364.92 148.47 359.84 143.50 Z" />
<path fill="#f05a28" opacity="1.00" d=" M 593.63 178.65 C 595.53 174.80 595.57 168.76 599.79 166.83 C 602.54 176.96 609.57 182.26 620.05 181.14 C 610.49 185.96 608.23 195.67 611.91 205.15 C 606.06 202.68 599.61 195.99 593.72 201.79 C 591.62 202.72 589.43 203.45 587.24 204.13 C 587.53 201.85 587.88 199.58 588.19 197.30 C 591.49 190.99 585.67 187.58 581.76 184.15 C 580.67 183.13 579.63 182.06 578.60 180.99 C 579.77 180.71 580.95 180.45 582.14 180.20 C 585.93 179.43 589.77 179.10 593.63 178.65 Z" />
<path fill="#b29c88" opacity="1.00" d=" M 373.55 179.56 C 383.15 174.24 393.74 165.85 403.21 176.67 C 393.26 177.01 383.48 178.97 373.55 179.56 Z" />
<path fill="#f05a28" opacity="1.00" d=" M 663.41 204.56 C 666.40 199.69 667.54 193.18 671.06 189.08 C 674.96 192.63 676.77 199.57 679.24 204.83 C 685.28 205.54 691.27 206.58 697.29 207.50 C 693.08 211.35 689.14 215.47 685.03 219.42 C 684.73 225.40 685.87 231.27 686.95 237.12 C 676.66 230.66 666.41 229.32 656.12 237.07 C 656.61 231.10 657.27 225.14 658.04 219.20 C 653.97 215.43 650.01 211.54 646.01 207.70 C 651.76 206.36 657.56 205.41 663.41 204.56 Z" />
<path fill="#f5e0cd" opacity="1.00" d=" M 254.77 231.74 C 328.30 205.98 408.69 186.54 486.16 204.83 C 511.00 218.87 538.34 205.74 564.50 206.29 C 579.84 216.39 593.30 229.59 604.99 243.76 C 600.22 245.05 596.04 247.95 591.26 249.11 C 552.31 230.08 509.05 222.63 466.34 217.66 C 397.83 206.38 326.14 214.63 263.93 246.26 C 261.61 242.63 244.80 234.72 254.77 231.74 Z" />
<path fill="#ecc19c" opacity="1.00" d=" M 203.08 203.74 C 212.26 229.23 235.04 246.06 254.92 263.07 C 302.48 302.26 363.35 341.46 373.33 407.26 C 374.90 335.84 311.97 289.31 263.93 246.26 C 326.14 214.63 397.83 206.38 466.34 217.66 C 509.05 222.63 552.31 230.08 591.26 249.11 C 589.47 250.18 587.65 251.18 585.79 252.10 C 578.25 255.47 571.10 259.81 565.67 266.13 C 539.83 236.07 493.88 226.73 458.96 246.32 C 420.41 262.01 401.09 304.79 396.99 344.03 C 391.70 389.47 404.70 440.84 441.79 470.22 C 466.74 490.13 505.29 488.52 528.22 466.21 C 537.50 461.78 546.64 457.09 554.77 450.72 C 547.49 470.57 539.65 490.24 532.93 510.27 C 516.41 514.32 499.77 519.56 482.59 519.32 C 455.51 513.75 434.03 493.90 407.19 487.57 C 387.63 483.03 373.13 502.70 353.62 498.58 C 338.39 495.53 325.93 484.89 311.12 480.69 C 300.76 477.33 292.58 486.76 282.45 485.64 C 265.38 481.28 260.06 455.36 240.48 457.31 C 213.60 469.75 193.80 441.55 174.20 427.78 C 162.77 392.43 167.02 352.96 182.24 319.40 C 185.13 320.00 187.79 325.38 190.93 327.16 C 187.76 353.61 191.56 385.34 214.77 402.24 C 243.50 423.22 281.94 419.49 315.37 417.68 C 288.12 416.84 260.03 413.23 235.57 400.44 C 216.23 389.63 204.65 367.61 206.73 345.49 C 235.40 364.75 269.73 374.50 304.04 376.02 C 266.95 359.43 227.07 344.67 198.39 314.61 C 189.13 304.78 184.77 287.80 195.88 277.74 C 216.66 307.02 247.50 329.59 282.35 338.68 C 248.80 312.48 215.01 281.79 201.94 239.94 C 199.78 228.06 198.44 215.21 203.08 203.74 M 363.37 439.43 C 367.67 460.59 398.43 446.08 405.39 434.31 C 391.70 432.53 374.60 429.28 363.37 439.43 M 379.09 470.28 C 374.43 479.14 388.11 480.26 393.68 479.96 C 410.17 480.60 415.44 461.08 414.90 447.92 C 402.54 454.29 388.09 459.17 379.09 470.28 Z" />
<path fill="#ecc19c" opacity="1.00" d=" M 233.02 203.67 C 234.91 207.35 235.73 211.38 235.96 215.48 C 235.27 215.63 233.89 215.93 233.20 216.07 C 232.43 215.25 231.65 214.43 230.87 213.62 C 231.35 210.25 232.00 206.92 233.02 203.67 Z" />
<path fill="#cf9e76" opacity="1.00" d=" M 396.99 344.03 C 401.09 304.79 420.41 262.01 458.96 246.32 C 407.82 277.33 390.48 346.66 411.04 400.94 C 426.36 448.11 478.44 484.23 528.22 466.21 C 505.29 488.52 466.74 490.13 441.79 470.22 C 404.70 440.84 391.70 389.47 396.99 344.03 Z" />
<path fill="#d09f77" opacity="1.00" d=" M 565.67 266.13 C 571.10 259.81 578.25 255.47 585.79 252.10 C 579.23 255.23 572.83 269.55 565.67 266.13 Z" />
<path fill="#ffffff" opacity="1.00" d=" M 453.56 277.90 C 470.48 261.28 496.40 252.48 519.42 260.63 C 541.80 267.85 556.68 287.68 568.23 307.07 C 580.27 284.85 599.73 259.47 628.34 263.44 C 660.07 270.20 676.39 303.32 681.30 332.69 C 687.25 370.15 675.80 420.20 638.16 437.12 C 628.83 435.26 620.23 431.03 612.72 425.28 C 638.71 434.86 661.78 411.96 667.16 388.26 C 676.03 354.07 672.40 312.60 647.38 285.68 C 637.67 274.66 619.35 272.29 608.03 282.09 C 579.72 304.48 577.12 352.73 602.75 378.19 C 609.79 384.02 621.29 385.37 629.00 380.04 C 649.96 363.75 652.57 327.41 631.82 310.03 C 616.14 298.23 594.17 324.19 606.40 337.97 C 616.86 345.72 616.14 323.88 625.75 330.02 C 634.78 339.52 629.74 365.71 612.92 361.44 C 594.46 345.77 597.86 312.07 617.90 299.34 C 630.07 293.37 641.44 303.09 646.50 313.53 C 656.90 334.24 659.45 359.49 652.57 381.64 C 649.02 398.22 630.30 412.63 613.75 403.26 C 599.13 400.50 598.92 378.28 584.63 378.18 C 573.67 387.00 584.01 401.81 591.27 409.69 C 588.53 412.89 585.84 416.14 583.02 419.27 C 577.55 412.79 573.94 404.96 568.21 398.71 C 557.55 419.24 540.78 440.68 517.28 445.82 C 502.08 443.24 487.42 436.86 475.84 426.58 C 476.21 426.40 476.93 426.05 477.30 425.88 C 504.98 434.71 536.39 425.08 555.24 403.27 C 560.77 398.42 566.58 388.39 559.43 382.36 C 550.59 374.95 541.95 385.29 536.50 391.59 C 519.47 411.45 483.72 414.87 466.97 393.11 C 448.41 365.15 455.35 319.94 485.32 302.25 C 507.59 291.21 535.32 312.21 533.10 336.09 C 534.04 350.10 522.00 366.39 506.70 363.80 C 492.65 360.72 487.05 338.48 500.26 330.95 C 506.70 327.65 510.27 337.07 514.70 339.82 C 522.91 344.90 532.66 336.51 529.87 327.47 C 523.21 307.41 494.15 302.67 481.20 319.24 C 460.25 339.58 473.76 378.96 501.83 384.50 C 529.49 391.25 554.09 364.90 553.91 338.61 C 558.38 304.32 523.89 272.14 489.97 278.58 C 465.92 283.04 448.32 303.57 440.69 325.91 C 439.85 308.98 448.63 294.15 453.42 278.59 L 453.56 277.90 Z" />
<path fill="#000000" opacity="1.00" d=" M 608.03 282.09 C 619.35 272.29 637.67 274.66 647.38 285.68 C 672.40 312.60 676.03 354.07 667.16 388.26 C 661.78 411.96 638.71 434.86 612.72 425.28 C 604.34 422.14 597.13 416.36 591.27 409.69 C 584.01 401.81 573.67 387.00 584.63 378.18 C 598.92 378.28 599.13 400.50 613.75 403.26 C 630.30 412.63 649.02 398.22 652.57 381.64 C 659.45 359.49 656.90 334.24 646.50 313.53 C 641.44 303.09 630.07 293.37 617.90 299.34 C 597.86 312.07 594.46 345.77 612.92 361.44 C 629.74 365.71 634.78 339.52 625.75 330.02 C 616.14 323.88 616.86 345.72 606.40 337.97 C 594.17 324.19 616.14 298.23 631.82 310.03 C 652.57 327.41 649.96 363.75 629.00 380.04 C 621.29 385.37 609.79 384.02 602.75 378.19 C 577.12 352.73 579.72 304.48 608.03 282.09 Z" />
<path fill="#000000" opacity="1.00" d=" M 489.97 278.58 C 523.89 272.14 558.38 304.32 553.91 338.61 C 554.09 364.90 529.49 391.25 501.83 384.50 C 473.76 378.96 460.25 339.58 481.20 319.24 C 494.15 302.67 523.21 307.41 529.87 327.47 C 532.66 336.51 522.91 344.90 514.70 339.82 C 510.27 337.07 506.70 327.65 500.26 330.95 C 487.05 338.48 492.65 360.72 506.70 363.80 C 522.00 366.39 534.04 350.10 533.10 336.09 C 535.32 312.21 507.59 291.21 485.32 302.25 C 455.35 319.94 448.41 365.15 466.97 393.11 C 483.72 414.87 519.47 411.45 536.50 391.59 C 541.95 385.29 550.59 374.95 559.43 382.36 C 566.58 388.39 560.77 398.42 555.24 403.27 C 536.39 425.08 504.98 434.71 477.30 425.88 C 437.74 411.68 427.29 361.93 440.69 325.91 C 448.32 303.57 465.92 283.04 489.97 278.58 Z" />
<path fill="#d0d2d3" opacity="1.00" d=" M 433.18 397.85 C 416.16 358.85 422.89 309.00 453.42 278.59 C 448.63 294.15 439.85 308.98 440.69 325.91 C 427.29 361.93 437.74 411.68 477.30 425.88 C 476.93 426.05 476.21 426.40 475.84 426.58 C 487.42 436.86 502.08 443.24 517.28 445.82 C 481.61 458.70 445.39 430.45 433.18 397.85 Z" />
<path fill="#d0d2d3" opacity="1.00" d=" M 583.02 419.27 C 585.84 416.14 588.53 412.89 591.27 409.69 C 597.13 416.36 604.34 422.14 612.72 425.28 C 620.23 431.03 628.83 435.26 638.16 437.12 C 619.39 447.73 594.69 435.70 583.02 419.27 Z" />
<path fill="#cf9e76" opacity="1.00" d=" M 174.20 427.78 C 193.80 441.55 213.60 469.75 240.48 457.31 C 260.06 455.36 265.38 481.28 282.45 485.64 C 292.58 486.76 300.76 477.33 311.12 480.69 C 325.93 484.89 338.39 495.53 353.62 498.58 C 373.13 502.70 387.63 483.03 407.19 487.57 C 434.03 493.90 455.51 513.75 482.59 519.32 C 499.77 519.56 516.41 514.32 532.93 510.27 C 553.60 510.05 573.74 503.54 594.33 502.27 C 521.79 551.08 428.21 555.05 344.22 544.76 C 274.77 535.02 195.36 500.95 174.20 427.78 Z" />
<path fill="#000000" opacity="1.00" d=" M 363.37 439.43 C 374.60 429.28 391.70 432.53 405.39 434.31 C 398.43 446.08 367.67 460.59 363.37 439.43 Z" />
<path fill="#000000" opacity="1.00" d=" M 379.09 470.28 C 388.09 459.17 402.54 454.29 414.90 447.92 C 415.44 461.08 410.17 480.60 393.68 479.96 C 388.11 480.26 374.43 479.14 379.09 470.28 Z" />
<path fill="#f05a28" opacity="1.00" d=" M 576.38 452.08 C 596.26 458.25 615.39 466.73 635.17 473.28 C 612.08 478.78 588.16 480.98 564.69 484.73 C 568.45 473.79 572.94 463.12 576.38 452.08 Z" />
</svg>
