<?xml version="1.0" encoding="UTF-8" ?>
<!DOCTYPE svg PUBLIC "-//W3C//DTD SVG 1.1//EN" "http://www.w3.org/Graphics/SVG/1.1/DTD/svg11.dtd">
<svg width="729pt" height="690pt" viewBox="0 0 729 690" version="1.1" xmlns="http://www.w3.org/2000/svg">
<path fill="#f05a28" opacity="1.00" d=" M 239.76 65.66 C 241.83 60.13 244.51 54.85 247.71 49.88 C 250.91 61.87 258.14 70.10 271.47 68.13 C 271.41 73.08 264.13 76.29 261.03 80.37 C 261.30 86.39 261.89 92.39 262.61 98.38 C 252.90 90.26 242.00 90.59 232.04 98.05 C 236.76 85.65 231.98 75.58 221.85 68.07 C 227.83 67.33 233.88 67.00 239.76 65.66 Z" />
<path fill="#f05a28" opacity="1.00" d=" M 366.86 73.86 C 369.56 67.97 372.43 62.16 375.77 56.61 C 378.62 61.90 380.49 67.65 383.34 72.93 C 389.41 75.27 396.71 73.27 402.57 76.57 C 398.18 81.40 388.71 84.38 389.14 92.06 C 389.66 97.18 390.74 102.22 391.73 107.27 C 381.86 99.51 370.79 97.14 360.86 106.07 C 360.23 100.18 361.17 94.31 361.75 88.46 C 357.14 84.62 352.71 80.54 348.78 76.01 C 354.80 75.27 360.86 74.75 366.86 73.86 Z" />
<path fill="#000000" opacity="1.00" d=" M 389.14 92.06 C 425.99 79.58 463.51 67.51 502.43 63.25 C 524.42 62.81 546.41 64.54 568.41 64.84 C 573.61 64.41 581.07 66.87 581.72 72.88 C 582.55 112.83 581.54 152.82 582.16 192.79 C 601.08 206.03 616.66 223.35 630.65 241.52 C 645.17 245.46 659.82 251.32 670.60 262.41 C 715.00 310.01 716.11 391.90 672.09 440.05 C 664.94 444.73 662.09 452.56 658.96 459.99 C 679.44 467.02 699.53 475.13 719.98 482.25 C 691.72 486.88 663.37 490.92 635.12 495.51 C 570.79 558.96 474.66 573.39 388.08 569.94 C 366.14 605.36 338.44 641.51 338.66 685.16 C 315.43 676.66 298.94 655.73 291.13 632.80 C 283.38 649.16 277.98 666.85 278.66 685.16 C 249.00 673.90 228.41 643.00 228.76 611.33 C 217.68 603.67 207.71 593.46 203.44 580.42 C 197.32 567.17 205.91 552.12 198.70 539.07 C 184.99 544.26 171.91 551.00 158.16 556.13 C 153.96 547.83 151.55 538.71 146.80 530.67 C 163.49 521.50 184.38 517.06 198.95 506.01 C 173.89 482.06 154.75 450.00 149.74 414.98 C 137.10 420.94 125.13 428.26 112.79 434.82 C 122.36 420.42 132.79 406.60 141.90 391.90 C 109.28 404.63 77.64 419.80 45.23 433.10 C 36.89 408.31 27.74 383.79 19.01 359.13 C 57.13 353.76 95.42 349.36 133.41 343.34 C 97.03 334.62 61.09 324.17 24.88 314.81 C 28.33 306.20 33.08 298.19 36.63 289.62 C 43.17 287.80 49.83 286.30 56.15 283.78 C 53.44 278.34 49.58 273.50 47.18 267.92 C 52.31 256.38 58.25 245.07 63.92 233.74 C 98.12 257.70 130.91 283.62 164.68 308.17 C 179.05 273.26 205.16 244.80 232.55 219.53 C 261.39 168.98 307.72 129.24 360.86 106.07 C 370.79 97.14 381.86 99.51 391.73 107.27 C 390.74 102.22 389.66 97.18 389.14 92.06 M 515.07 84.82 C 515.56 119.93 518.85 154.94 518.99 190.04 C 532.86 187.72 546.85 186.17 560.85 184.88 C 561.20 151.93 560.94 118.98 560.96 86.03 C 559.24 85.98 555.81 85.88 554.10 85.83 C 552.39 91.67 551.55 97.70 550.36 103.65 C 547.75 97.75 547.50 91.14 545.81 84.97 C 541.38 85.07 536.93 85.26 532.52 85.45 C 531.21 92.78 529.49 100.03 527.76 107.27 C 525.64 100.03 523.94 92.68 522.79 85.23 C 520.21 85.08 517.64 84.95 515.07 84.82 M 408.17 108.25 C 405.31 115.76 403.98 123.79 400.76 131.18 C 397.51 125.76 395.14 119.89 392.66 114.09 C 344.55 134.07 298.91 163.11 267.06 205.06 C 320.13 187.46 375.55 175.43 431.73 175.84 C 434.09 170.62 436.19 165.29 438.26 159.95 C 440.99 165.25 442.92 170.91 444.37 176.68 C 450.75 177.30 457.15 178.14 463.58 177.80 C 466.38 170.78 468.80 163.58 472.12 156.77 C 476.37 164.46 478.65 173.24 481.38 181.60 C 486.91 183.10 492.47 184.61 498.03 186.01 C 496.37 152.65 496.47 119.16 493.82 85.86 C 464.54 89.68 435.81 98.03 408.17 108.25 M 250.72 233.53 C 231.52 247.63 215.15 265.64 201.61 285.23 L 200.98 285.39 C 172.82 326.22 158.37 379.40 174.21 427.79 C 181.00 450.82 194.01 472.12 211.94 488.16 C 224.77 477.20 239.63 469.13 254.38 461.11 C 276.41 449.87 299.77 438.11 314.09 417.09 C 303.80 453.32 266.81 471.49 239.56 493.56 C 227.34 503.18 212.18 516.66 214.47 533.84 C 235.04 508.26 266.68 494.01 297.36 484.31 C 272.63 504.90 242.15 522.18 228.98 552.95 C 223.57 563.87 228.61 576.84 236.24 585.35 C 247.33 537.97 290.84 508.07 331.97 487.94 C 301.12 519.58 266.29 552.42 256.16 597.30 C 253.89 613.93 254.55 631.71 260.98 647.40 C 271.24 583.09 329.84 543.04 358.70 487.71 C 373.13 463.41 379.71 434.26 373.24 406.45 C 377.07 414.88 376.67 424.24 379.15 433.00 C 387.88 432.90 396.67 432.82 405.33 434.20 C 400.73 444.00 388.47 447.77 378.58 449.58 C 377.45 466.27 373.56 482.76 367.26 498.25 C 360.76 514.42 352.40 529.72 343.81 544.85 C 427.96 554.89 521.67 551.24 594.31 502.27 C 573.72 503.59 553.60 510.00 532.92 510.28 C 539.80 490.29 547.39 470.54 554.77 450.73 C 546.63 457.10 537.48 461.80 528.14 466.10 C 490.22 479.49 447.38 462.14 425.80 429.19 C 385.70 372.86 398.28 283.21 458.94 246.31 C 493.73 227.15 540.00 235.91 565.58 266.21 C 573.05 269.29 579.13 255.39 585.78 252.07 C 587.64 251.16 589.47 250.18 591.25 249.12 C 596.02 247.90 600.24 245.12 604.98 243.75 C 593.27 229.61 579.87 216.35 564.49 206.31 C 538.33 205.72 511.00 218.88 486.16 204.83 C 407.30 186.58 325.20 206.10 250.72 233.53 M 453.58 277.90 L 453.43 278.59 C 422.34 309.36 416.39 359.94 433.76 399.25 C 446.48 431.60 482.73 458.55 518.24 445.92 C 541.20 439.61 557.68 419.22 568.24 398.71 C 573.87 405.03 577.59 412.77 583.02 419.26 C 594.73 435.71 619.30 447.70 638.18 437.14 C 651.44 433.12 660.69 421.13 667.85 409.85 C 688.10 374.01 688.30 326.82 666.22 291.78 C 654.72 272.45 630.73 256.19 607.84 265.74 C 588.95 272.78 578.08 290.54 568.21 307.05 C 556.69 287.65 541.78 267.87 519.42 260.62 C 496.40 252.51 470.47 261.25 453.58 277.90 M 576.38 452.07 C 572.93 463.11 568.46 473.79 564.69 484.71 C 588.17 481.01 612.08 478.76 635.17 473.28 C 615.40 466.73 596.26 458.26 576.38 452.07 M 331.47 564.41 C 312.51 587.22 310.74 620.45 320.98 647.40 C 324.70 617.32 342.43 591.51 360.26 567.90 C 350.78 565.98 341.10 565.26 331.47 564.41 Z" />
<path fill="#d6c2ad" opacity="1.00" d=" M 515.07 84.82 C 517.64 84.95 520.21 85.08 522.79 85.23 C 523.94 92.68 525.64 100.03 527.76 107.27 C 529.49 100.03 531.21 92.78 532.52 85.45 C 536.93 85.26 541.38 85.07 545.81 84.97 C 547.50 91.14 547.75 97.75 550.36 103.65 C 551.55 97.70 552.39 91.67 554.10 85.83 C 555.81 85.88 559.24 85.98 560.96 86.03 C 560.94 118.98 561.20 151.93 560.85 184.88 C 546.85 186.17 532.86 187.72 518.99 190.04 C 518.85 154.94 515.56 119.93 515.07 84.82 Z" />
<path fill="#b29c88" opacity="1.00" d=" M 408.17 108.25 C 435.81 98.03 464.54 89.68 493.82 85.86 C 496.47 119.16 496.37 152.65 498.03 186.01 C 492.47 184.61 486.91 183.10 481.38 181.60 C 478.65 173.24 476.37 164.46 472.12 156.77 C 468.80 163.58 466.38 170.78 463.58 177.80 C 457.15 178.14 450.75 177.30 444.37 176.68 C 442.92 170.91 440.99 165.25 438.26 159.95 C 436.19 165.29 434.09 170.62 431.73 175.84 C 375.55 175.43 320.13 187.46 267.06 205.06 C 298.91 163.11 344.55 134.07 392.66 114.09 C 395.14 119.89 397.51 125.76 400.76 131.18 C 403.98 123.79 405.31 115.76 408.17 108.25 Z" />
<path fill="#f05a28" opacity="1.00" d=" M 624.67 115.79 C 625.81 102.22 632.07 106.34 634.26 115.84 C 638.27 116.42 642.30 116.91 646.32 117.51 C 643.54 120.09 640.80 122.70 638.01 125.27 C 638.33 128.83 638.63 132.39 638.93 135.96 C 632.79 132.27 626.24 131.13 620.21 135.78 C 622.53 128.23 618.89 121.93 612.98 117.59 C 616.88 117.11 620.80 116.54 624.67 115.79 Z" />
<path fill="#f05a28" opacity="1.00" d=" M 185.63 130.70 C 186.18 128.08 188.25 119.45 190.79 125.12 C 191.85 131.47 198.53 130.92 203.46 132.36 C 201.31 134.39 199.16 136.40 197.00 138.42 C 197.26 141.64 197.60 144.87 197.78 148.10 C 194.80 146.88 191.88 145.51 188.95 144.18 C 186.34 145.45 183.74 146.72 181.12 147.99 C 181.36 144.73 181.69 141.49 182.00 138.25 C 179.99 136.40 178.00 134.54 175.99 132.70 C 179.21 132.09 182.45 131.50 185.63 130.70 Z" />
<path fill="#f05a28" opacity="1.00" d=" M 231.18 123.61 C 232.78 126.20 234.32 128.81 235.75 131.50 C 238.60 131.77 241.50 132.08 244.36 132.40 C 242.21 134.37 240.09 136.36 237.95 138.32 C 238.29 141.22 238.63 144.10 239.02 147.00 C 234.49 144.26 228.63 143.03 224.28 146.78 C 224.38 143.92 224.58 141.07 224.83 138.23 C 222.78 136.54 220.73 134.86 218.67 133.20 C 221.60 132.68 224.53 132.13 227.47 131.67 C 228.67 128.97 229.94 126.30 231.18 123.61 Z" />
<path fill="#f05a28" opacity="1.00" d=" M 611.33 167.53 C 612.83 171.74 614.87 176.07 620.50 175.03 C 620.19 179.02 615.76 181.91 616.84 186.57 C 612.69 185.57 608.30 184.82 604.77 187.78 C 605.06 185.21 605.63 182.72 606.04 180.18 C 604.35 178.84 602.61 177.56 600.88 176.29 C 603.03 175.64 605.25 175.23 607.48 174.77 C 608.75 172.35 610.03 169.93 611.33 167.53 Z" />
<path fill="#f5e0cd" opacity="1.00" d=" M 250.72 233.53 C 325.20 206.10 407.30 186.58 486.16 204.83 C 511.00 218.88 538.33 205.72 564.49 206.31 C 579.87 216.35 593.27 229.61 604.98 243.75 C 600.24 245.12 596.02 247.90 591.25 249.12 C 538.78 223.79 479.65 218.39 422.39 213.57 C 343.25 207.38 265.03 237.20 202.89 284.87 C 202.57 284.96 201.93 285.14 201.61 285.23 C 215.15 265.64 231.52 247.63 250.72 233.53 Z" />
<path fill="#ecc19c" opacity="1.00" d=" M 202.89 284.87 C 265.03 237.20 343.25 207.38 422.39 213.57 C 479.65 218.39 538.78 223.79 591.25 249.12 C 589.47 250.18 587.64 251.16 585.78 252.07 C 578.24 255.53 571.06 259.90 565.58 266.21 C 540.00 235.91 493.73 227.15 458.94 246.31 C 396.31 275.60 383.82 360.58 406.00 420.01 C 415.58 444.84 432.50 468.61 457.68 479.28 C 481.16 489.47 509.81 483.79 528.14 466.10 C 537.48 461.80 546.63 457.10 554.77 450.73 C 547.39 470.54 539.80 490.29 532.92 510.28 C 511.85 514.68 489.07 524.91 468.05 514.96 C 447.46 506.83 429.34 492.95 407.61 487.70 C 392.77 484.75 380.51 493.81 367.26 498.25 C 373.56 482.76 377.45 466.27 378.58 449.58 C 388.47 447.77 400.73 444.00 405.33 434.20 C 396.67 432.82 387.88 432.90 379.15 433.00 C 376.67 424.24 377.07 414.88 373.24 406.45 C 379.71 434.26 373.13 463.41 358.70 487.71 C 329.84 543.04 271.24 583.09 260.98 647.40 C 254.55 631.71 253.89 613.93 256.16 597.30 C 266.29 552.42 301.12 519.58 331.97 487.94 C 290.84 508.07 247.33 537.97 236.24 585.35 C 228.61 576.84 223.57 563.87 228.98 552.95 C 242.15 522.18 272.63 504.90 297.36 484.31 C 266.68 494.01 235.04 508.26 214.47 533.84 C 212.18 516.66 227.34 503.18 239.56 493.56 C 266.81 471.49 303.80 453.32 314.09 417.09 C 299.77 438.11 276.41 449.87 254.38 461.11 C 244.02 452.41 231.31 461.96 219.78 460.44 C 202.62 452.64 188.74 439.48 174.21 427.79 C 158.37 379.40 172.82 326.22 200.98 285.39 L 201.61 285.23 C 201.93 285.14 202.57 284.96 202.89 284.87 M 379.07 470.25 C 374.80 476.29 382.23 478.75 386.66 479.62 C 406.17 485.42 416.55 464.02 414.91 447.92 C 402.33 454.01 388.44 459.50 379.07 470.25 Z" />
<path fill="#cf9e76" opacity="1.00" d=" M 406.00 420.01 C 383.82 360.58 396.31 275.60 458.94 246.31 C 398.28 283.21 385.70 372.86 425.80 429.19 C 447.38 462.14 490.22 479.49 528.14 466.10 C 509.81 483.79 481.16 489.47 457.68 479.28 C 432.50 468.61 415.58 444.84 406.00 420.01 Z" />
<path fill="#d09f77" opacity="1.00" d=" M 565.58 266.21 C 571.06 259.90 578.24 255.53 585.78 252.07 C 579.13 255.39 573.05 269.29 565.58 266.21 Z" />
<path fill="#ffffff" opacity="1.00" d=" M 453.58 277.90 C 470.47 261.25 496.40 252.51 519.42 260.62 C 541.78 267.87 556.69 287.65 568.21 307.05 C 578.08 290.54 588.95 272.78 607.84 265.74 C 630.73 256.19 654.72 272.45 666.22 291.78 C 688.30 326.82 688.10 374.01 667.85 409.85 C 660.69 421.13 651.44 433.12 638.18 437.14 C 628.85 435.27 620.28 430.96 612.70 425.32 C 640.46 435.26 664.04 409.51 668.10 384.16 C 675.18 350.74 671.61 310.88 646.88 285.19 C 637.14 274.53 619.13 272.49 608.03 282.09 C 579.71 304.49 577.12 352.76 602.76 378.19 C 611.07 385.07 625.69 385.62 632.83 376.70 C 650.12 359.14 651.28 326.29 631.80 310.03 C 616.28 298.60 595.08 323.07 605.74 337.44 C 612.99 343.51 617.29 334.55 619.60 328.91 C 638.44 328.87 630.70 368.72 612.27 361.08 C 594.43 345.04 598.10 311.97 617.92 299.34 C 630.98 293.03 642.59 304.37 647.50 315.50 C 658.37 340.04 661.43 371.68 646.02 394.92 C 635.70 410.91 610.92 408.34 600.93 393.03 C 595.86 387.94 592.91 374.31 583.28 379.03 C 574.72 389.17 584.26 401.73 591.22 409.75 C 588.50 412.93 585.84 416.16 583.02 419.26 C 577.59 412.77 573.87 405.03 568.24 398.71 C 557.68 419.22 541.20 439.61 518.24 445.92 C 502.53 443.87 487.66 436.90 475.78 426.48 C 476.16 426.35 476.93 426.08 477.31 425.94 C 508.51 435.86 544.56 422.17 561.75 394.49 C 566.33 386.56 557.14 376.86 548.87 380.47 C 540.45 385.14 535.75 394.45 527.32 399.24 C 507.94 414.07 474.15 410.53 463.21 386.87 C 449.59 359.00 457.45 318.59 485.33 302.25 C 507.60 291.23 535.33 312.21 533.09 336.09 C 534.04 350.09 522.03 366.38 506.72 363.78 C 493.09 360.84 486.59 339.01 499.61 331.32 C 509.52 326.46 513.86 346.80 524.71 340.08 C 537.20 331.95 525.17 315.22 514.49 311.35 C 496.08 302.69 475.65 318.13 471.99 336.40 C 465.54 359.76 486.36 386.75 510.75 385.01 C 535.17 386.02 553.86 361.55 553.89 338.60 C 558.17 305.51 526.32 274.35 493.41 278.05 C 467.73 280.97 448.66 302.50 440.67 325.89 C 439.94 308.99 448.56 294.14 453.43 278.59 L 453.58 277.90 Z" />
<path fill="#000000" opacity="1.00" d=" M 608.03 282.09 C 619.13 272.49 637.14 274.53 646.88 285.19 C 671.61 310.88 675.18 350.74 668.10 384.16 C 664.04 409.51 640.46 435.26 612.70 425.32 C 604.37 422.08 597.19 416.31 591.22 409.75 C 584.26 401.73 574.72 389.17 583.28 379.03 C 592.91 374.31 595.86 387.94 600.93 393.03 C 610.92 408.34 635.70 410.91 646.02 394.92 C 661.43 371.68 658.37 340.04 647.50 315.50 C 642.59 304.37 630.98 293.03 617.92 299.34 C 598.10 311.97 594.43 345.04 612.27 361.08 C 630.70 368.72 638.44 328.87 619.60 328.91 C 617.29 334.55 612.99 343.51 605.74 337.44 C 595.08 323.07 616.28 298.60 631.80 310.03 C 651.28 326.29 650.12 359.14 632.83 376.70 C 625.69 385.62 611.07 385.07 602.76 378.19 C 577.12 352.76 579.71 304.49 608.03 282.09 Z" />
<path fill="#000000" opacity="1.00" d=" M 440.67 325.89 C 448.66 302.50 467.73 280.97 493.41 278.05 C 526.32 274.35 558.17 305.51 553.89 338.60 C 553.86 361.55 535.17 386.02 510.75 385.01 C 486.36 386.75 465.54 359.76 471.99 336.40 C 475.65 318.13 496.08 302.69 514.49 311.35 C 525.17 315.22 537.20 331.95 524.71 340.08 C 513.86 346.80 509.52 326.46 499.61 331.32 C 486.59 339.01 493.09 360.84 506.72 363.78 C 522.03 366.38 534.04 350.09 533.09 336.09 C 535.33 312.21 507.60 291.23 485.33 302.25 C 457.45 318.59 449.59 359.00 463.21 386.87 C 474.15 410.53 507.94 414.07 527.32 399.24 C 535.75 394.45 540.45 385.14 548.87 380.47 C 557.14 376.86 566.33 386.56 561.75 394.49 C 544.56 422.17 508.51 435.86 477.31 425.94 C 437.63 411.83 427.39 361.89 440.67 325.89 Z" />
<path fill="#d0d2d3" opacity="1.00" d=" M 433.76 399.25 C 416.39 359.94 422.34 309.36 453.43 278.59 C 448.56 294.14 439.94 308.99 440.67 325.89 C 427.39 361.89 437.63 411.83 477.31 425.94 C 476.93 426.08 476.16 426.35 475.78 426.48 C 487.66 436.90 502.53 443.87 518.24 445.92 C 482.73 458.55 446.48 431.60 433.76 399.25 Z" />
<path fill="#d0d2d3" opacity="1.00" d=" M 583.02 419.26 C 585.84 416.16 588.50 412.93 591.22 409.75 C 597.19 416.31 604.37 422.08 612.70 425.32 C 620.28 430.96 628.85 435.27 638.18 437.14 C 619.30 447.70 594.73 435.71 583.02 419.26 Z" />
<path fill="#cf9e76" opacity="1.00" d=" M 174.21 427.79 C 188.74 439.48 202.62 452.64 219.78 460.44 C 231.31 461.96 244.02 452.41 254.38 461.11 C 239.63 469.13 224.77 477.20 211.94 488.16 C 194.01 472.12 181.00 450.82 174.21 427.79 Z" />
<path fill="#000000" opacity="1.00" d=" M 379.07 470.25 C 388.44 459.50 402.33 454.01 414.91 447.92 C 416.55 464.02 406.17 485.42 386.66 479.62 C 382.23 478.75 374.80 476.29 379.07 470.25 Z" />
<path fill="#f05a28" opacity="1.00" d=" M 576.38 452.07 C 596.26 458.26 615.40 466.73 635.17 473.28 C 612.08 478.76 588.17 481.01 564.69 484.71 C 568.46 473.79 572.93 463.11 576.38 452.07 Z" />
<path fill="#cf9e76" opacity="1.00" d=" M 367.26 498.25 C 380.51 493.81 392.77 484.75 407.61 487.70 C 429.34 492.95 447.46 506.83 468.05 514.96 C 489.07 524.91 511.85 514.68 532.92 510.28 C 553.60 510.00 573.72 503.59 594.31 502.27 C 521.67 551.24 427.96 554.89 343.81 544.85 C 352.40 529.72 360.76 514.42 367.26 498.25 Z" />
<path fill="#ecc19c" opacity="1.00" d=" M 331.47 564.41 C 341.10 565.26 350.78 565.98 360.26 567.90 C 342.43 591.51 324.70 617.32 320.98 647.40 C 310.74 620.45 312.51 587.22 331.47 564.41 Z" />
</svg>
