<?xml version="1.0" encoding="UTF-8" ?>
<!DOCTYPE svg PUBLIC "-//W3C//DTD SVG 1.1//EN" "http://www.w3.org/Graphics/SVG/1.1/DTD/svg11.dtd">
<svg width="712pt" height="637pt" viewBox="0 0 712 637" version="1.1" xmlns="http://www.w3.org/2000/svg">
<path fill="#000000" opacity="1.00" d=" M 442.84 15.87 C 480.69 5.27 520.35 7.40 559.18 9.30 C 563.96 10.43 568.35 15.17 567.01 20.46 C 567.11 59.26 566.83 98.06 567.09 136.85 C 587.07 149.59 602.29 168.07 616.74 186.45 C 651.74 191.93 675.83 224.09 684.29 256.73 C 698.38 303.04 687.09 358.46 650.52 391.57 C 647.95 395.27 646.78 399.72 644.89 403.78 C 664.72 411.79 684.89 418.95 705.00 426.25 C 676.96 431.32 648.74 435.55 620.50 439.33 C 568.02 493.39 490.28 510.95 417.67 514.70 C 412.23 516.11 403.35 512.08 400.61 518.80 C 380.06 552.68 353.51 587.33 354.81 628.96 C 324.83 619.51 304.15 587.31 304.88 556.34 C 300.91 552.93 297.01 549.38 292.41 546.85 C 278.86 572.36 262.98 598.88 264.81 628.96 C 234.69 619.59 214.40 587.21 214.87 556.33 C 203.82 548.25 193.57 538.10 188.94 524.96 C 184.77 511.53 190.52 497.01 184.54 484.04 C 169.87 486.87 157.84 496.73 143.36 499.99 C 140.17 491.31 136.02 483.03 132.95 474.32 C 148.89 468.03 164.33 460.58 180.26 454.26 C 182.12 453.30 186.90 451.58 183.99 449.13 C 158.26 425.77 141.38 393.88 134.64 359.92 C 122.02 365.40 110.24 372.68 98.10 379.15 C 107.60 364.69 118.63 351.20 127.24 336.19 C 94.76 348.64 63.48 363.99 31.25 377.02 C 22.18 352.50 13.08 327.95 5.04 303.07 C 42.94 298.89 80.65 292.69 118.43 287.90 C 82.71 277.76 46.53 269.25 10.89 258.85 C 14.37 251.07 17.50 243.09 21.45 235.53 C 27.02 230.39 35.42 231.28 42.00 227.93 C 40.37 221.63 32.78 217.35 33.62 210.59 C 39.50 199.87 43.38 188.05 49.84 177.67 C 83.41 202.19 116.37 227.52 149.89 252.09 C 165.36 218.43 189.45 189.45 217.18 165.17 C 263.24 82.27 353.68 36.85 442.84 15.87 M 501.05 29.16 C 501.17 64.13 505.38 98.99 505.17 134.03 C 518.85 132.87 532.20 129.15 546.01 129.01 C 545.87 95.94 546.26 62.87 545.79 29.80 C 535.92 28.25 538.55 40.40 535.45 46.42 C 533.63 40.78 532.59 34.94 531.80 29.08 C 527.32 29.08 522.82 29.18 518.36 29.26 C 516.70 36.64 515.24 44.08 513.16 51.36 C 510.65 44.12 509.71 36.47 507.87 29.07 C 506.16 29.09 502.75 29.14 501.05 29.16 M 395.20 52.12 C 389.71 58.65 390.01 68.43 386.24 76.07 C 383.77 70.37 380.99 64.81 378.60 59.07 C 330.01 77.03 284.85 107.77 253.08 149.09 C 305.92 132.05 361.08 118.89 416.94 121.26 C 420.34 116.44 420.64 107.94 423.91 104.27 C 427.08 108.63 427.87 115.49 430.32 120.75 C 436.50 121.50 442.70 122.19 448.90 122.86 C 452.26 115.60 453.90 107.46 458.49 100.82 C 461.21 109.49 464.75 117.87 467.48 126.53 C 473.03 127.88 478.56 129.37 484.06 130.96 C 482.87 97.28 480.52 63.73 479.92 30.02 C 451.15 34.86 422.33 41.32 395.20 52.12 M 238.09 177.07 C 216.69 190.97 199.75 211.45 185.33 232.34 C 157.50 272.28 144.82 324.60 160.06 371.89 C 165.97 394.97 179.88 415.89 197.10 432.10 C 211.05 422.53 225.08 412.91 240.30 405.29 C 262.46 394.59 284.59 381.65 299.75 361.75 C 289.91 396.48 255.19 414.04 228.96 434.95 C 215.63 445.47 197.75 458.57 200.31 477.74 C 220.74 452.57 251.91 439.01 281.93 428.87 C 258.42 449.82 228.05 465.80 214.96 495.96 C 209.51 507.69 214.23 520.91 222.20 530.14 C 232.28 481.93 276.87 452.70 317.94 431.89 C 290.65 460.26 260.22 488.44 246.37 526.35 C 236.90 546.72 238.73 570.51 246.31 591.20 C 260.14 514.84 338.91 472.24 358.22 398.18 C 362.91 382.70 360.40 366.44 359.22 350.65 C 362.08 359.03 363.88 367.79 364.28 376.65 C 373.33 377.02 382.43 377.06 391.41 378.35 C 386.12 388.20 374.33 391.50 364.29 394.26 C 362.25 410.25 359.41 426.17 353.65 441.32 C 346.64 457.59 338.48 473.32 329.84 488.77 C 413.99 499.71 507.75 495.18 580.27 446.29 C 559.86 448.63 539.63 455.08 519.01 454.24 C 525.18 434.26 533.37 414.89 540.10 395.08 C 532.09 402.14 522.14 405.91 513.02 411.02 C 485.08 419.62 453.72 413.62 431.15 394.85 C 369.51 343.83 374.88 233.52 443.65 190.92 C 478.86 171.87 525.60 179.89 551.50 210.80 C 551.90 211.35 552.71 212.46 553.11 213.01 C 559.04 207.13 565.50 201.86 571.87 196.49 C 573.67 195.76 575.40 194.88 577.12 193.96 C 581.50 191.43 586.24 189.62 591.02 187.97 C 579.56 173.72 565.68 161.65 551.14 150.68 C 526.21 149.93 499.65 162.43 475.82 150.06 C 396.45 129.88 313.40 150.03 238.09 177.07 M 441.01 221.05 C 397.64 260.94 399.56 339.26 444.34 377.66 C 460.69 390.70 483.44 397.53 503.79 390.38 L 502.97 390.19 C 526.97 384.79 542.87 363.11 554.25 342.81 C 559.54 349.47 563.21 357.30 569.19 363.46 C 579.74 380.37 605.10 391.58 624.59 381.56 L 623.77 381.37 C 650.06 371.01 662.46 341.34 667.24 315.22 C 672.17 275.86 660.92 225.08 619.85 209.02 C 588.97 200.25 566.98 227.35 554.03 251.14 C 544.20 236.87 535.62 220.88 519.85 212.16 C 495.84 195.22 460.68 199.71 441.01 221.05 M 562.19 396.03 C 558.55 407.21 554.08 418.09 550.18 429.18 C 574.25 425.96 598.27 422.19 622.21 418.13 C 602.15 410.91 582.24 403.27 562.19 396.03 M 307.95 523.04 C 309.34 525.41 310.74 527.80 312.16 530.17 C 314.10 522.91 316.61 515.83 318.74 508.64 C 313.39 511.86 311.72 518.36 307.95 523.04 M 341.66 512.46 C 330.04 537.00 325.34 565.39 336.31 591.20 C 341.16 562.46 356.25 536.02 375.33 514.34 C 364.06 514.20 352.92 512.11 341.66 512.46 Z" />
<path fill="#d6c2ad" opacity="1.00" d=" M 501.05 29.16 C 502.75 29.14 506.16 29.09 507.87 29.07 C 509.71 36.47 510.65 44.12 513.16 51.36 C 515.24 44.08 516.70 36.64 518.36 29.26 C 522.82 29.18 527.32 29.08 531.80 29.08 C 532.59 34.94 533.63 40.78 535.45 46.42 C 538.55 40.40 535.92 28.25 545.79 29.80 C 546.26 62.87 545.87 95.94 546.01 129.01 C 532.20 129.15 518.85 132.87 505.17 134.03 C 505.38 98.99 501.17 64.13 501.05 29.16 Z" />
<path fill="#b29c88" opacity="1.00" d=" M 395.20 52.12 C 422.33 41.32 451.15 34.86 479.92 30.02 C 480.52 63.73 482.87 97.28 484.06 130.96 C 478.56 129.37 473.03 127.88 467.48 126.53 C 464.75 117.87 461.21 109.49 458.49 100.82 C 453.90 107.46 452.26 115.60 448.90 122.86 C 442.70 122.19 436.50 121.50 430.32 120.75 C 427.87 115.49 427.08 108.63 423.91 104.27 C 420.64 107.94 420.34 116.44 416.94 121.26 C 361.08 118.89 305.92 132.05 253.08 149.09 C 284.85 107.77 330.01 77.03 378.60 59.07 C 380.99 64.81 383.77 70.37 386.24 76.07 C 390.01 68.43 389.71 58.65 395.20 52.12 Z" />
<path fill="#f5e0cd" opacity="1.00" d=" M 238.09 177.07 C 313.40 150.03 396.45 129.88 475.82 150.06 C 499.65 162.43 526.21 149.93 551.14 150.68 C 565.68 161.65 579.56 173.72 591.02 187.97 C 586.24 189.62 581.50 191.43 577.12 193.96 C 528.26 168.92 472.31 163.85 418.48 158.53 C 334.73 149.50 249.99 179.64 185.33 232.34 C 199.75 211.45 216.69 190.97 238.09 177.07 Z" />
<path fill="#ecc19c" opacity="1.00" d=" M 185.33 232.34 C 249.99 179.64 334.73 149.50 418.48 158.53 C 472.31 163.85 528.26 168.92 577.12 193.96 C 575.40 194.88 573.67 195.76 571.87 196.49 C 563.85 199.25 556.65 204.01 551.50 210.80 C 525.60 179.89 478.86 171.87 443.65 190.92 C 416.05 201.81 398.92 228.63 389.59 255.61 C 373.24 307.03 380.71 370.39 420.96 409.05 C 445.23 433.11 488.17 435.48 513.02 411.02 C 522.14 405.91 532.09 402.14 540.10 395.08 C 533.37 414.89 525.18 434.26 519.01 454.24 C 503.08 458.75 486.83 462.92 470.23 463.77 C 441.53 459.54 419.46 437.09 391.15 431.64 C 377.42 428.40 366.57 439.68 353.65 441.32 C 359.41 426.17 362.25 410.25 364.29 394.26 C 374.33 391.50 386.12 388.20 391.41 378.35 C 382.43 377.06 373.33 377.02 364.28 376.65 C 363.88 367.79 362.08 359.03 359.22 350.65 C 360.40 366.44 362.91 382.70 358.22 398.18 C 338.91 472.24 260.14 514.84 246.31 591.20 C 238.73 570.51 236.90 546.72 246.37 526.35 C 260.22 488.44 290.65 460.26 317.94 431.89 C 276.87 452.70 232.28 481.93 222.20 530.14 C 214.23 520.91 209.51 507.69 214.96 495.96 C 228.05 465.80 258.42 449.82 281.93 428.87 C 251.91 439.01 220.74 452.57 200.31 477.74 C 197.75 458.57 215.63 445.47 228.96 434.95 C 255.19 414.04 289.91 396.48 299.75 361.75 C 284.59 381.65 262.46 394.59 240.30 405.29 C 230.20 397.29 217.87 405.43 206.61 404.75 C 188.70 397.87 174.52 384.08 160.06 371.89 C 144.82 324.60 157.50 272.28 185.33 232.34 M 363.76 420.32 C 384.43 434.85 403.79 412.22 400.85 391.87 C 388.06 399.39 367.08 404.20 363.76 420.32 Z" />
<path fill="#cf9e76" opacity="1.00" d=" M 389.59 255.61 C 398.92 228.63 416.05 201.81 443.65 190.92 C 374.88 233.52 369.51 343.83 431.15 394.85 C 453.72 413.62 485.08 419.62 513.02 411.02 C 488.17 435.48 445.23 433.11 420.96 409.05 C 380.71 370.39 373.24 307.03 389.59 255.61 Z" />
<path fill="#d09f77" opacity="1.00" d=" M 551.50 210.80 C 556.65 204.01 563.85 199.25 571.87 196.49 C 565.50 201.86 559.04 207.13 553.11 213.01 C 552.71 212.46 551.90 211.35 551.50 210.80 Z" />
<path fill="#ffffff" opacity="1.00" d=" M 441.01 221.05 C 460.68 199.71 495.84 195.22 519.85 212.16 C 535.62 220.88 544.20 236.87 554.03 251.14 C 566.98 227.35 588.97 200.25 619.85 209.02 C 660.92 225.08 672.17 275.86 667.24 315.22 C 662.46 341.34 650.06 371.01 623.77 381.37 C 605.24 378.05 591.21 364.16 580.00 349.95 C 575.86 353.98 572.62 358.83 569.19 363.46 C 563.21 357.30 559.54 349.47 554.25 342.81 C 542.87 363.11 526.97 384.79 502.97 390.19 C 456.74 383.30 426.91 336.81 425.23 292.54 C 422.51 267.63 429.80 243.04 441.01 221.05 M 513.44 274.32 C 502.79 291.22 501.92 318.33 518.40 331.86 C 535.51 336.75 541.86 314.43 541.01 301.36 C 536.24 300.61 531.49 299.82 526.75 298.97 C 530.56 294.23 534.71 289.74 538.03 284.62 C 538.14 272.70 521.43 262.13 513.44 274.32 M 628.04 279.08 C 621.68 294.26 620.41 315.95 633.64 327.80 C 647.70 329.62 649.70 310.68 650.14 300.50 C 646.30 299.87 642.46 299.26 638.62 298.66 C 643.14 292.39 651.66 285.15 644.89 277.27 C 642.05 269.23 629.76 270.78 628.04 279.08 Z" />
<path fill="#d0d2d3" opacity="1.00" d=" M 444.34 377.66 C 399.56 339.26 397.64 260.94 441.01 221.05 C 429.80 243.04 422.51 267.63 425.23 292.54 C 426.91 336.81 456.74 383.30 502.97 390.19 L 503.79 390.38 C 483.44 397.53 460.69 390.70 444.34 377.66 Z" />
<path fill="#000000" opacity="1.00" d=" M 513.44 274.32 C 521.43 262.13 538.14 272.70 538.03 284.62 C 534.71 289.74 530.56 294.23 526.75 298.97 C 531.49 299.82 536.24 300.61 541.01 301.36 C 541.86 314.43 535.51 336.75 518.40 331.86 C 501.92 318.33 502.79 291.22 513.44 274.32 Z" />
<path fill="#000000" opacity="1.00" d=" M 628.04 279.08 C 629.76 270.78 642.05 269.23 644.89 277.27 C 651.66 285.15 643.14 292.39 638.62 298.66 C 642.46 299.26 646.30 299.87 650.14 300.50 C 649.70 310.68 647.70 329.62 633.64 327.80 C 620.41 315.95 621.68 294.26 628.04 279.08 Z" />
<path fill="#d0d2d3" opacity="1.00" d=" M 569.19 363.46 C 572.62 358.83 575.86 353.98 580.00 349.95 C 591.21 364.16 605.24 378.05 623.77 381.37 L 624.59 381.56 C 605.10 391.58 579.74 380.37 569.19 363.46 Z" />
<path fill="#cf9e76" opacity="1.00" d=" M 160.06 371.89 C 174.52 384.08 188.70 397.87 206.61 404.75 C 217.87 405.43 230.20 397.29 240.30 405.29 C 225.08 412.91 211.05 422.53 197.10 432.10 C 179.88 415.89 165.97 394.97 160.06 371.89 Z" />
<path fill="#000000" opacity="1.00" d=" M 363.76 420.32 C 367.08 404.20 388.06 399.39 400.85 391.87 C 403.79 412.22 384.43 434.85 363.76 420.32 Z" />
<path fill="#f05a28" opacity="1.00" d=" M 562.19 396.03 C 582.24 403.27 602.15 410.91 622.21 418.13 C 598.27 422.19 574.25 425.96 550.18 429.18 C 554.08 418.09 558.55 407.21 562.19 396.03 Z" />
<path fill="#cf9e76" opacity="1.00" d=" M 353.65 441.32 C 366.57 439.68 377.42 428.40 391.15 431.64 C 419.46 437.09 441.53 459.54 470.23 463.77 C 486.83 462.92 503.08 458.75 519.01 454.24 C 539.63 455.08 559.86 448.63 580.27 446.29 C 507.75 495.18 413.99 499.71 329.84 488.77 C 338.48 473.32 346.64 457.59 353.65 441.32 Z" />
<path fill="#ecc19c" opacity="1.00" d=" M 307.95 523.04 C 311.72 518.36 313.39 511.86 318.74 508.64 C 316.61 515.83 314.10 522.91 312.16 530.17 C 310.74 527.80 309.34 525.41 307.95 523.04 Z" />
<path fill="#ecc19c" opacity="1.00" d=" M 341.66 512.46 C 352.92 512.11 364.06 514.20 375.33 514.34 C 356.25 536.02 341.16 562.46 336.31 591.20 C 325.34 565.39 330.04 537.00 341.66 512.46 Z" />
</svg>
